Coordinates
version=1
nRows=12
nColumns=24
inDegrees=yes

Units are S.I. units (second, meters, Newtons, ...)
Angles are in degrees.

endheader
time	pelvis_tilt	pelvis_list	pelvis_rotation	pelvis_tx	pelvis_ty	pelvis_tz	hip_flexion_r	hip_adduction_r	hip_rotation_r	knee_angle_r	ankle_angle_r	subtalar_angle_r	mtp_angle_r	hip_flexion_l	hip_adduction_l	hip_rotation_l	knee_angle_l	ankle_angle_l	subtalar_angle_l	mtp_angle_l	lumbar_extension	lumbar_bending	lumbar_rotation
      4.55000000	     -8.38934919	      7.98926872	     -0.26359064	     -0.39975219	     -0.01526187	      0.60574501	     25.43403453	    -14.28243004	     -5.97785265	    -63.42908165	     -5.13241821	     -1.46275746	     14.15256152	     14.92756976	     12.38168029	     -1.25057964	    -13.56023189	      1.22822184	      5.75061580	      0.88152595	      7.29101305	    -10.02594396	     -1.90894916
      4.55500000	     -8.39529171	      7.70629465	      0.12136316	     -0.39382170	     -0.01436635	      0.60542733	     25.99864265	    -14.13019966	     -6.25899372	    -62.78252580	     -4.97575283	     -0.96906005	     14.47973929	     14.16279081	     12.22962438	     -0.53415322	    -13.02623822	      1.36698014	      5.57612039	      0.53639856	      7.22297393	     -9.77516256	     -2.46754540
      4.56000000	     -8.38019611	      7.42954287	      0.50232591	     -0.38777452	     -0.01348916	      0.60510261	     26.49606884	    -13.99248834	     -6.57311439	    -62.03801533	     -4.81947103	     -0.57897246	     14.80889361	     13.34596400	     12.07796672	      0.25173907	    -12.44873159	      1.47831480	      5.29405426	      0.07274196	      7.16105329	     -9.52483491	     -2.93462199
      4.56500000	     -8.37606650	      7.16347600	      0.85930625	     -0.38176563	     -0.01271063	      0.60482969	     27.00389525	    -13.84389032	     -6.83620672	    -61.23929489	     -4.68813958	     -0.21105324	     15.07184506	     12.56128112	     11.91065464	      0.96538859	    -11.89164765	      1.61227685	      5.07380281	     -0.37354661	      7.10902455	     -9.28297559	     -3.39975774
      4.57000000	     -8.38048238	      6.90542076	      1.21180732	     -0.37581083	     -0.01203004	      0.60459215	     27.51240062	    -13.69280745	     -7.06858472	    -60.38957912	     -4.57312380	      0.14884093	     15.22836254	     11.81126826	     11.72872742	      1.60489874	    -11.36150307	      1.75990155	      4.93830894	     -0.71083902	      7.05996941	     -9.05162962	     -3.89283434
      4.57500000	     -8.37452079	      6.65261463	      1.55768981	     -0.36978862	     -0.01139769	      0.60433525	     27.97657715	    -13.54920062	     -7.30858395	    -59.46273162	     -4.45908368	      0.43383484	     15.31003399	     11.04011701	     11.54272350	      2.24934154	    -10.81283756	      1.89063951	      4.76219963	     -1.07913925	      7.01617651	     -8.81447422	     -4.33867398
      4.58000000	     -8.45764681	      6.41894854	      1.78036726	     -0.36378021	     -0.01097853	      0.60430992	     28.57429331	    -13.34128065	     -7.38390231	    -58.50041262	     -4.34132295	      0.67894491	     15.30057898	     10.40995347	     11.32094763	      2.60157215	    -10.30174391	      2.06739324	      4.79644139	     -1.19387968	      7.09638111	     -8.59289095	     -4.59116404
      4.58500000	     -8.36794861	      6.16932455	      2.22260079	     -0.35781040	     -0.01038032	      0.60395241	     28.85914433	    -13.26605993	     -7.75895707	    -57.43550433	     -4.23846567	      0.85049297	     15.20161963	      9.55174023	     11.13583352	      3.40793143	     -9.75923993	      2.16674429	      4.53714160	     -1.63912612	      6.93236300	     -8.38123278	     -5.18997319
      4.59000000	     -8.37377105	      5.93366994	      2.52188802	     -0.35181382	     -0.00999238	      0.60378125	     29.28417380	    -13.11357056	     -7.94175277	    -56.33014323	     -4.14128833	      0.99472836	     15.01174531	      8.82945586	     10.91921519	      3.96365031	     -9.24435666	      2.32407002	      4.40331773	     -1.99705811	      6.91116984	     -8.15723051	     -5.57169234
      4.59500000	     -8.41264479	      5.70547439	      2.79331226	     -0.34581660	     -0.00970470	      0.60363376	     29.73176303	    -12.95854938	     -8.09539709	    -55.16426969	     -4.06894899	      1.10042325	     14.78141873	      8.17088541	     10.69444748	      4.35654798	     -8.75790625	      2.46933882	      4.37240473	     -2.22274582	      6.93449634	     -7.93544464	     -5.90248031
      4.60000000	     -8.37349288	      5.49823439	      3.10836700	     -0.33984708	     -0.00946205	      0.60348776	     30.05563028	    -12.84437244	     -8.30092881	    -53.95720414	     -3.93589343	      1.09512978	     14.36173829	      7.42128011	     10.48352455	      4.92350951	     -8.27082682	      2.66170512	      4.29072098	     -2.51250002	      6.85524106	     -7.74665853	     -6.29790859
      4.60500000	     -8.37509461	      5.29463508	      3.38085938	     -0.33389086	     -0.00932109	      0.60336159	     30.41715167	    -12.71601201	     -8.45711611	    -52.69419324	     -3.83580633	      1.07686692	     13.87351147	      6.74048318	     10.26494050	      5.36057545	     -7.80805472	      2.84523070	      4.25293442	     -2.75314949	      6.83281092	     -7.55036360	     -6.63659557
